# xmcd
#
# Track frame offsets:
#	150
#	16525
#	33100
#	49228
#	66650
#	81794
#	97673
#	115842
#	131892
#	147879
#	163941
#	181871
#	197473
#	214538
#	231833
#	248161
#
# Disc length: 3506 seconds
#
# Revision: 1
# Processed by: cddbd v1.5.2PL0 Copyright (c) Steve Scherf et al.
# Submitted via: EasyCDDAExtractor 15.3.0.1
#
DISCID=d10db010
DTITLE=Alexandra Lexer - Komm Schon Kuess Mich 2013
DYEAR=2013
DGENRE=Itävalta Iskelmä
TTITLE0=Komm Schon Kuess Mich
TTITLE1=Die Karte Aus Napoli
TTITLE2=Sehensucht Die Nie Vergeht
TTITLE3=Meine Insel Bist Du
TTITLE4=Der Pure Wahnsinn
TTITLE5=Mon Chèrie
TTITLE6=Uns Bleibt Ja Die Nacht
TTITLE7=Heimatgefuehl
TTITLE8=Caipirinha
TTITLE9=Frag Doch Dein Herz
TTITLE10=Nacht Der 1000 Sterne
TTITLE11=Immer Immer Mit Dir
TTITLE12=Bis Ans Ende Der Ewigkeit
TTITLE13=Fast Zu Gut Um Wahr Zu Sein
TTITLE14=Der Letzte Tanz
TTITLE15=Ich Fange Nie Mehr Was An Einem Sonntag An
EXTD=
EXTT0=
EXTT1=
EXTT2=
EXTT3=
EXTT4=
EXTT5=
EXTT6=
EXTT7=
EXTT8=
EXTT9=
EXTT10=
EXTT11=
EXTT12=
EXTT13=
EXTT14=
EXTT15=
PLAYORDER=
